<svg width="40" height="40" viewBox="0 0 40 40" fill="none" xmlns="http://www.w3.org/2000/svg">
<path d="M9.53411 6.13976C12.3683 4.01092 15.8891 2.75 19.7083 2.75C29.0742 2.75 36.6667 10.3425 36.6667 19.7083C36.6667 29.0742 29.0742 36.6667 19.7083 36.6667C12.1171 36.6667 5.68747 31.6777 3.52614 24.7963C3.29859 24.0718 2.5268 23.669 1.8023 23.8965C1.07781 24.1241 0.674952 24.8959 0.902504 25.6204C3.41347 33.615 10.8816 39.4167 19.7083 39.4167C30.593 39.4167 39.4167 30.5929 39.4167 19.7083C39.4167 8.82372 30.593 0 19.7083 0C15.2731 0 11.1765 1.4667 7.88251 3.94095C6.51656 4.96696 5.0697 6.42118 3.85061 7.82917C3.46523 8.27427 3.09455 8.72408 2.75 9.16412L2.75 2.29167C2.75 1.53227 2.13439 0.916667 1.375 0.916667C0.615608 0.916667 0 1.53227 0 2.29167V12.375C0 13.1344 0.615608 13.75 1.375 13.75H2.18619C2.20416 13.7504 2.22211 13.7504 2.24003 13.75H11.4583C12.2177 13.75 12.8333 13.1344 12.8333 12.375C12.8333 11.6156 12.2177 11 11.4583 11H4.80594C5.14378 10.563 5.52209 10.0999 5.92961 9.62925C7.07971 8.30094 8.38285 7.0045 9.53411 6.13976Z" fill="white"/>
</svg>
