<svg width="60" height="60" viewBox="0 0 60 60" fill="none" xmlns="http://www.w3.org/2000/svg">
<path d="M24.2078 3.12515H33.2922C34.2497 3.12404 35.0929 3.12307 35.8888 3.36107C36.587 3.56982 37.2379 3.91222 37.8054 4.36923C38.4524 4.89027 38.9293 5.58563 39.4708 6.37526L41.5329 9.37484C43.7045 9.37531 45.4623 9.38281 46.8997 9.50025C48.4747 9.62894 49.8294 9.89889 51.0736 10.5329C53.0729 11.5515 54.6983 13.1769 55.7169 15.1762C56.7405 17.1849 56.847 19.5887 56.87 22.9055C56.8772 23.941 56.0436 24.7863 55.0081 24.7934C53.9726 24.8006 53.1273 23.967 53.1201 22.9315C53.096 19.4503 52.9298 17.9662 52.3757 16.8786C51.7165 15.585 50.6648 14.5333 49.3712 13.8741C48.7437 13.5544 47.9374 13.3475 46.5943 13.2378C45.2293 13.1263 43.4812 13.1248 41 13.1248H40.5465C39.9291 13.1248 39.3513 12.8208 39.0015 12.3121L36.493 8.66337C35.7738 7.61728 35.6167 7.42143 35.4534 7.28995C35.2642 7.13761 35.0472 7.02347 34.8145 6.95389C34.6137 6.89383 34.3633 6.8753 33.0938 6.8753H24.4062C23.1367 6.8753 22.8863 6.89383 22.6855 6.95389C22.4528 7.02347 22.2358 7.1376 22.0466 7.28995C21.8833 7.42143 21.7262 7.61728 21.007 8.66337L18.4985 12.3121C18.1487 12.8208 17.5709 13.1248 16.9535 13.1248H16.5C14.0188 13.1248 12.2707 13.1263 10.9057 13.2378C9.56257 13.3475 8.7563 13.5544 8.12882 13.8741C6.8352 14.5333 5.78346 15.585 5.12433 16.8786C4.80461 17.5061 4.59772 18.3124 4.48799 19.6555C4.37646 21.0205 4.375 22.7686 4.375 25.2498V37.2498C4.375 39.731 4.37646 41.4791 4.48799 42.8441C4.59772 44.1872 4.80461 44.9935 5.12433 45.621C5.78346 46.9146 6.8352 47.9664 8.12882 48.6255C8.7563 48.9452 9.56257 49.1521 10.9057 49.2618C12.2707 49.3734 14.0188 49.3748 16.5 49.3748H27.2309C28.2664 49.3748 29.1059 50.2143 29.1059 51.2498C29.1059 52.2853 28.2664 53.1248 27.2309 53.1248H16.4184C14.0374 53.1248 12.1359 53.1248 10.6003 52.9994C9.0253 52.8707 7.67059 52.6007 6.42635 51.9668C4.42713 50.9481 2.80171 49.3227 1.78306 47.3235C1.14908 46.0792 0.879125 44.7245 0.75044 43.1495C0.624972 41.6138 0.624985 39.7125 0.625 37.3314V25.1683C0.624985 22.7872 0.624972 20.8858 0.75044 19.3501C0.879125 17.7751 1.14908 16.4204 1.78306 15.1762C2.80171 13.1769 4.42713 11.5515 6.42635 10.5329C7.67059 9.89889 9.0253 9.62894 10.6003 9.50025C12.0377 9.38281 13.7955 9.37531 15.9671 9.37484L18.0291 6.3753C18.5707 5.58565 19.0476 4.89028 19.6946 4.36923C20.2621 3.91222 20.913 3.56982 21.6112 3.36107C22.4071 3.12307 23.2503 3.12404 24.2078 3.12515Z" fill="white"/>
<path d="M16.875 31.2503C16.875 24.6919 22.1916 19.3753 28.75 19.3753C34.5814 19.3753 39.4277 23.5768 40.4336 29.1173C40.6186 30.1362 39.9426 31.1121 38.9237 31.2971C37.9049 31.4821 36.9289 30.8061 36.7439 29.7872C36.056 25.9983 32.7366 23.1253 28.75 23.1253C24.2627 23.1253 20.625 26.763 20.625 31.2503C20.625 35.0813 23.2782 38.2972 26.8496 39.1523C27.8566 39.3934 28.4776 40.4052 28.2364 41.4123C27.9953 42.4194 26.9835 43.0403 25.9764 42.7992C20.7567 41.5495 16.875 36.8555 16.875 31.2503Z" fill="white"/>
<path fill-rule="evenodd" clip-rule="evenodd" d="M39.0335 36.3533C40.0096 33.7156 43.7404 33.7156 44.7165 36.3533L45.4625 38.3695C46.0913 40.0688 47.4312 41.4087 49.1305 42.0375L51.1467 42.7835C53.7844 43.7596 53.7845 47.4904 51.1467 48.4665L49.1305 49.2125C47.4312 49.8413 46.0913 51.1812 45.4625 52.8805L44.7165 54.8967C43.7404 57.5344 40.0096 57.5345 39.0335 54.8967L38.2875 52.8805C37.6587 51.1812 36.3188 49.8413 34.6195 49.2125L32.6033 48.4665C29.9656 47.4904 29.9656 43.7596 32.6033 42.7835L34.6195 42.0375C36.3188 41.4087 37.6587 40.0688 38.2875 38.3695L39.0335 36.3533ZM41.875 39.4801L41.8044 39.6708C40.7958 42.3967 38.6467 44.5458 35.9208 45.5544L35.7301 45.625L35.9208 45.6956C38.6467 46.7042 40.7958 48.8533 41.8044 51.5792L41.875 51.7699L41.9456 51.5792C42.9542 48.8533 45.1033 46.7042 47.8292 45.6956L48.0199 45.625L47.8292 45.5544C45.1033 44.5458 42.9542 42.3967 41.9456 39.6708L41.875 39.4801Z" fill="white"/>
<path d="M52.8172 30.2208C52.7082 29.9264 52.2918 29.9264 52.1828 30.2208L51.6972 31.5332C51.2405 32.7674 50.2674 33.7405 49.0332 34.1972L47.7208 34.6828C47.4264 34.7918 47.4264 35.2082 47.7208 35.3172L49.0332 35.8028C50.2674 36.2595 51.2405 37.2326 51.6972 38.4668L52.1828 39.7792C52.2918 40.0736 52.7082 40.0736 52.8172 39.7792L53.3028 38.4668C53.7595 37.2326 54.7326 36.2595 55.9668 35.8028L57.2792 35.3172C57.5736 35.2082 57.5736 34.7918 57.2792 34.6828L55.9668 34.1972C54.7326 33.7405 53.7595 32.7674 53.3028 31.5332L52.8172 30.2208Z" fill="white"/>
</svg>
