<svg width="89" height="80" viewBox="0 0 89 80" fill="none" xmlns="http://www.w3.org/2000/svg">
<path d="M34.2856 79.6423C53.221 79.6423 68.5712 64.2921 68.5712 45.3567C68.5712 26.4212 53.221 11.071 34.2856 11.071C15.3502 11.071 0 26.4212 0 45.3567C0 64.2921 15.3502 79.6423 34.2856 79.6423Z" fill="#B0EF8F"/>
<path d="M34.6733 71.8568L34.2385 71.1159C27.5958 59.798 9.94368 35.7798 9.76538 35.5386L9.51074 35.1927L15.5247 29.2492L34.5617 42.5422C46.5478 26.9884 57.7301 16.3053 65.0242 10.0668C73.0034 3.24249 78.1973 0.100806 78.2498 0.0707004L78.3679 0H88.5693L87.5948 0.867824C62.5334 23.19 35.3695 70.6336 35.0989 71.1102L34.6733 71.8568Z" fill="#009045"/>
</svg>
