<svg width="52" height="52" viewBox="0 0 52 52" fill="none" xmlns="http://www.w3.org/2000/svg">
<g clip-path="url(#clip0_56_5114)">
<path d="M26 52C40.3594 52 52 40.3594 52 26C52 11.6406 40.3594 0 26 0C11.6406 0 0 11.6406 0 26C0 40.3594 11.6406 52 26 52Z" fill="#D80027"/>
<path d="M14.2294 15.8203L16.4739 22.7266H23.7356L17.8653 27.0023L20.1099 33.9086L14.2294 29.643L8.34893 33.9086L10.6036 27.0023L4.72314 22.7266H11.9849L14.2294 15.8203Z" fill="#FFDA44"/>
<path d="M30.8235 40.268L29.107 38.1555L26.568 39.1406L28.0406 36.8555L26.3242 34.7328L28.9547 35.4336L30.4375 33.1484L30.5797 35.8703L33.2203 36.5711L30.6711 37.5461L30.8235 40.268Z" fill="#FFDA44"/>
<path d="M34.2374 34.0727L35.0499 31.4727L32.8257 29.8984L35.5476 29.8578L36.3499 27.2578L37.2335 29.8375L39.9554 29.807L37.7718 31.432L38.6452 34.0117L36.421 32.4375L34.2374 34.0727Z" fill="#FFDA44"/>
<path d="M38.8383 19.0809L37.6398 21.5285L39.5898 23.4277L36.8984 23.0418L35.7 25.4793L35.2328 22.798L32.5312 22.4121L34.9484 21.1426L34.4813 18.4512L36.4313 20.3504L38.8383 19.0809Z" fill="#FFDA44"/>
<path d="M30.8952 11.668L30.6921 14.3797L33.221 15.4055L30.5702 16.0555L30.3772 18.7774L28.9452 16.4617L26.2944 17.1117L28.0515 15.0297L26.6093 12.7242L29.1382 13.75L30.8952 11.668Z" fill="#FFDA44"/>
</g>
<defs>
<clipPath id="clip0_56_5114">
<rect width="52" height="52" fill="white"/>
</clipPath>
</defs>
</svg>
