<svg width="52" height="52" viewBox="0 0 52 52" fill="none" xmlns="http://www.w3.org/2000/svg">
<g clip-path="url(#clip0_56_5128)">
<path d="M26 52C40.3594 52 52 40.3594 52 26C52 11.6406 40.3594 0 26 0C11.6406 0 0 11.6406 0 26C0 40.3594 11.6406 52 26 52Z" fill="#F0F0F0"/>
<path d="M5.375 10.1699C3.33268 12.8271 1.79269 15.8897 0.895996 19.2168H14.4219L5.375 10.1699Z" fill="#0052B4"/>
<path d="M51.1053 19.2167C50.2086 15.8897 48.6685 12.8271 46.6263 10.1699L37.5796 19.2167H51.1053Z" fill="#0052B4"/>
<path d="M0.895996 32.7832C1.79279 36.1102 3.33279 39.1728 5.37501 41.8299L14.4216 32.7832H0.895996Z" fill="#0052B4"/>
<path d="M41.829 5.37364C39.1718 3.33132 36.1093 1.79133 32.7822 0.894531V14.4203L41.829 5.37364Z" fill="#0052B4"/>
<path d="M10.1704 46.6227C12.8276 48.6651 15.8902 50.2051 19.2172 51.1019V37.5762L10.1704 46.6227Z" fill="#0052B4"/>
<path d="M19.2171 0.894531C15.8901 1.79133 12.8275 3.33132 10.1704 5.37354L19.2171 14.4202V0.894531Z" fill="#0052B4"/>
<path d="M32.7822 51.1019C36.1092 50.2051 39.1718 48.6651 41.8289 46.6228L32.7822 37.5762V51.1019Z" fill="#0052B4"/>
<path d="M37.5796 32.7832L46.6263 41.83C48.6685 39.1729 50.2086 36.1102 51.1053 32.7832H37.5796Z" fill="#0052B4"/>
<path d="M51.7799 22.6087H29.3915H29.3914V0.220086C28.2812 0.0755625 27.1494 0 26 0C24.8504 0 23.7188 0.0755625 22.6087 0.220086V22.6085V22.6086H0.220086C0.0755625 23.7188 0 24.8506 0 26C0 27.1496 0.0755625 28.2812 0.220086 29.3913H22.6085H22.6086V51.7799C23.7188 51.9244 24.8504 52 26 52C27.1494 52 28.2812 51.9245 29.3913 51.7799V29.3915V29.3914H51.7799C51.9244 28.2812 52 27.1496 52 26C52 24.8506 51.9244 23.7188 51.7799 22.6087Z" fill="#D80027"/>
<path d="M32.7827 32.7853L44.3848 44.3874C44.9184 43.854 45.4274 43.2963 45.9131 42.7182L35.9801 32.7852H32.7827V32.7853Z" fill="#D80027"/>
<path d="M19.2174 32.7852H19.2172L7.61523 44.3871C8.14864 44.9208 8.70632 45.4298 9.28441 45.9155L19.2174 35.9822V32.7852Z" fill="#D80027"/>
<path d="M19.2168 19.2157V19.2155L7.61474 7.61328C7.08113 8.14669 6.5721 8.70437 6.08643 9.28246L16.0195 19.2156H19.2168V19.2157Z" fill="#D80027"/>
<path d="M32.7827 19.2184L44.3849 7.6161C43.8515 7.08249 43.2938 6.57346 42.7157 6.08789L32.7827 16.021V19.2184Z" fill="#D80027"/>
</g>
<defs>
<clipPath id="clip0_56_5128">
<rect width="52" height="52" fill="white"/>
</clipPath>
</defs>
</svg>
