<svg width="94" height="84" viewBox="0 0 94 84" fill="none" xmlns="http://www.w3.org/2000/svg">
<path d="M60.4167 46.875C60.4167 39.3961 54.3539 33.3333 46.875 33.3333C39.3961 33.3333 33.3333 39.3961 33.3333 46.875C33.3333 54.3539 39.3961 60.4167 46.875 60.4167C54.3539 60.4167 60.4167 54.3539 60.4167 46.875Z" fill="white"/>
<path fill-rule="evenodd" clip-rule="evenodd" d="M29.9373 4.06379C31.6863 1.51984 34.5755 0 37.6627 0H56.0873C59.1745 0 62.0637 1.51985 63.8127 4.06379L68.1798 10.4159C71.7992 10.4167 74.7288 10.4292 77.1244 10.6249C79.7495 10.8394 82.0073 11.2893 84.0811 12.3459C87.4131 14.0437 90.1221 16.7527 91.8199 20.0848C92.8765 22.1585 93.3265 24.4164 93.5409 27.0414C93.75 29.6008 93.75 32.7699 93.75 36.7382V57.0104C93.75 60.9788 93.75 64.1476 93.5409 66.707C93.3265 69.332 92.8765 71.5899 91.8199 73.6636C90.1221 76.9956 87.4131 79.7047 84.0811 81.4024C82.0073 82.459 79.7495 82.909 77.1244 83.1235C74.5651 83.3326 71.396 83.3325 67.4276 83.3325H26.3221C22.3537 83.3325 19.1849 83.3326 16.6256 83.1235C14.0005 82.909 11.7427 82.459 9.66892 81.4024C6.33689 79.7047 3.62785 76.9956 1.9301 73.6636C0.873475 71.5899 0.423543 69.332 0.209067 66.707C-4.49208e-05 64.1475 -2.47372e-05 60.9786 5.54432e-07 57.0102V36.7383C-2.47372e-05 32.7698 -4.49208e-05 29.6008 0.209067 27.0414C0.423543 24.4164 0.873475 22.1585 1.9301 20.0848C3.62785 16.7527 6.33688 14.0437 9.66892 12.3459C11.7427 11.2893 14.0005 10.8394 16.6256 10.6249C19.0212 10.4292 21.9508 10.4167 25.5702 10.4159L29.9373 4.06379ZM46.875 27.0833C57.8056 27.0833 66.6667 35.9444 66.6667 46.875C66.6667 57.8056 57.8056 66.6667 46.875 66.6667C35.9444 66.6667 27.0833 57.8056 27.0833 46.875C27.0833 35.9444 35.9444 27.0833 46.875 27.0833Z" fill="white"/>
</svg>
