<svg width="30" height="34" viewBox="0 0 30 34" fill="none" xmlns="http://www.w3.org/2000/svg">
<path d="M15.75 12.375C15.75 11.7537 15.2463 11.25 14.625 11.25C14.0037 11.25 13.5 11.7537 13.5 12.375V19.125C13.5 19.7463 14.0037 20.25 14.625 20.25C15.2463 20.25 15.75 19.7463 15.75 19.125V12.375Z" fill="white"/>
<path fill-rule="evenodd" clip-rule="evenodd" d="M15.75 2.25V4.54263C18.7551 4.77123 21.5063 5.90801 23.7299 7.67912L25.8295 5.5795C26.2688 5.14016 26.9811 5.14016 27.4205 5.5795C27.8598 6.01884 27.8598 6.73116 27.4205 7.1705L25.3784 9.21255C27.7819 11.8186 29.25 15.3003 29.25 19.125C29.25 27.2022 22.7022 33.75 14.625 33.75C6.54784 33.75 0 27.2022 0 19.125C0 11.4264 5.9485 5.11708 13.5 4.54263V2.25H10.125C9.50368 2.25 9 1.74632 9 1.125C9 0.50368 9.50368 0 10.125 0H19.125C19.7463 0 20.25 0.50368 20.25 1.125C20.25 1.74632 19.7463 2.25 19.125 2.25H15.75ZM2.25 19.125C2.25 12.2905 7.79048 6.75 14.625 6.75C21.4595 6.75 27 12.2905 27 19.125C27 25.9595 21.4595 31.5 14.625 31.5C7.79048 31.5 2.25 25.9595 2.25 19.125Z" fill="white"/>
</svg>
