<svg width="141" height="134" viewBox="0 0 141 134" fill="none" xmlns="http://www.w3.org/2000/svg">
<g opacity="0.8">
<mask id="path-1-inside-1_820_32025" fill="white">
<path fill-rule="evenodd" clip-rule="evenodd" d="M88.9388 32.0771C88.3788 31.9448 87.7116 31.9048 84.3134 31.9048H83.3177C79.7781 31.9048 76.9086 29.0479 76.9086 25.5238C76.9086 21.9997 79.7781 19.1429 83.3177 19.1429H84.3134C84.4905 19.1429 84.6663 19.1427 84.8406 19.1425C87.4171 19.1402 89.6889 19.1381 91.8981 19.66C93.839 20.1185 95.6964 20.8749 97.4037 21.9021C99.3469 23.0713 100.966 24.6579 102.802 26.4574C102.926 26.5791 103.052 26.7018 103.178 26.8255L108.371 31.9045C108.467 31.9044 108.564 31.9044 108.66 31.9043C114.845 31.9003 119.444 31.8973 123.367 33.1805C131.105 35.7125 137.175 41.7553 139.718 49.46C141.007 53.3649 141.004 57.9446 141 64.1024C140.999 64.4522 140.999 64.8072 140.999 65.1674L140.999 97.2542C140.999 102.391 140.999 106.63 140.716 110.083C140.422 113.67 139.79 116.967 138.205 120.064C135.747 124.866 131.825 128.771 127.001 131.218C123.891 132.796 120.579 133.425 116.977 133.718C113.508 134 109.25 134 104.091 134L49.7257 134C44.5667 134 40.3088 134 36.8403 133.718C33.2378 133.425 29.9262 132.796 26.8157 131.218C21.9919 128.771 18.0701 124.866 15.6122 120.064C14.0273 116.967 13.3956 113.67 13.1013 110.083C12.8179 106.63 12.818 102.39 12.8181 97.254L12.8181 82.9524C12.8181 79.4283 15.6875 76.5714 19.2271 76.5714C22.7667 76.5714 25.6362 79.4283 25.6362 82.9524L25.6362 96.9905C25.6362 102.456 25.6411 106.172 25.8768 109.044C26.1064 111.841 26.5225 113.272 27.0332 114.27C28.2622 116.671 30.2231 118.624 32.635 119.847C33.6373 120.356 35.0743 120.77 37.8841 120.998C40.7687 121.233 44.5007 121.238 49.9906 121.238H103.827C109.316 121.238 113.048 121.233 115.933 120.998C118.743 120.77 120.18 120.356 121.182 119.847C123.594 118.624 125.555 116.671 126.784 114.27C127.295 113.272 127.711 111.841 127.94 109.044C128.176 106.172 128.181 102.456 128.181 96.9905L128.181 65.1674C128.181 57.4628 128.1 55.1407 127.54 53.4443C126.269 49.5919 123.234 46.5705 119.365 45.3046C117.661 44.7471 115.329 44.6667 107.59 44.6667C107.56 44.6667 107.526 44.6668 107.487 44.667C107.112 44.6687 106.34 44.6723 105.557 44.549C104.086 44.3172 102.69 43.7485 101.478 42.8875C100.833 42.4296 100.284 41.8884 100.018 41.625C99.9903 41.598 99.9659 41.5739 99.9447 41.5531L94.1949 35.929C91.7708 33.5578 91.2667 33.1209 90.774 32.8245C90.205 32.4821 89.5858 32.23 88.9388 32.0771Z"/>
<path fill-rule="evenodd" clip-rule="evenodd" d="M35.2498 0C38.0084 0 40.4576 1.75751 41.3299 4.36312L47.5268 22.8721L66.1172 29.0417C68.7343 29.9103 70.4996 32.3487 70.4996 35.0952C70.4996 37.8418 68.7343 40.2802 66.1172 41.1487L47.5268 47.3184L41.3299 65.8274C40.4576 68.433 38.0084 70.1905 35.2498 70.1905C32.4911 70.1905 30.042 68.433 29.1696 65.8274L22.9728 47.3184L4.38233 41.1487C1.76525 40.2802 1.30699e-06 37.8418 1.21213e-06 35.0952C1.11727e-06 32.3487 1.76525 29.9103 4.38233 29.0417L22.9728 22.8721L29.1696 4.36312C30.042 1.75751 32.4911 0 35.2498 0ZM35.2498 26.5593L34.1198 29.9345C33.4818 31.8399 31.9801 33.335 30.0663 33.9702L26.6763 35.0952L30.0663 36.2203C31.9801 36.8554 33.4818 38.3506 34.1198 40.256L35.2498 43.6312L36.3798 40.256C37.0177 38.3506 38.5195 36.8554 40.4332 36.2203L43.8233 35.0952L40.4332 33.9702C38.5195 33.335 37.0177 31.8399 36.3798 29.9345L35.2498 26.5593Z"/>
<path fill-rule="evenodd" clip-rule="evenodd" d="M76.9086 70.1905C69.8294 70.1905 64.0905 75.9042 64.0905 82.9524C64.0905 90.0006 69.8294 95.7143 76.9086 95.7143C83.9879 95.7143 89.7267 90.0006 89.7267 82.9524C89.7267 75.9042 83.9879 70.1905 76.9086 70.1905ZM51.2724 82.9524C51.2724 68.856 62.7501 57.4286 76.9086 57.4286C91.0671 57.4286 102.545 68.856 102.545 82.9524C102.545 97.0488 91.0671 108.476 76.9086 108.476C62.7501 108.476 51.2724 97.0488 51.2724 82.9524Z"/>
</mask>
<path d="M88.9388 32.0771L89.6286 29.1575V29.1575L88.9388 32.0771ZM84.8406 19.1425L84.8378 16.1425H84.8378L84.8406 19.1425ZM91.8981 19.66L92.5878 16.7403H92.5878L91.8981 19.66ZM97.4037 21.9021L98.9503 19.3315L98.9503 19.3315L97.4037 21.9021ZM102.802 26.4574L104.902 24.3147L104.902 24.3147L102.802 26.4574ZM103.178 26.8255L101.08 28.9701L101.08 28.9701L103.178 26.8255ZM108.371 31.9045L106.273 34.0491C106.834 34.5979 107.588 34.905 108.372 34.9045L108.371 31.9045ZM108.66 31.9043L108.662 34.9043V34.9043L108.66 31.9043ZM123.367 33.1805L122.434 36.0318L122.434 36.0318L123.367 33.1805ZM139.718 49.46L136.869 50.4003L136.869 50.4003L139.718 49.46ZM141 64.1024L144 64.1044L144 64.1044L141 64.1024ZM140.999 97.2542H137.999L137.999 97.2542L140.999 97.2542ZM140.716 110.083L143.706 110.328V110.328L140.716 110.083ZM138.205 120.064L135.534 118.697H135.534L138.205 120.064ZM127.001 131.218L125.644 128.543H125.644L127.001 131.218ZM116.977 133.718L117.22 136.708V136.708L116.977 133.718ZM104.091 134L104.091 131H104.091L104.091 134ZM49.7257 134L49.7257 131H49.7257L49.7257 134ZM36.8403 133.718L36.5971 136.708H36.5971L36.8403 133.718ZM26.8157 131.218L28.1729 128.543H28.1729L26.8157 131.218ZM15.6122 120.064L18.2828 118.697V118.697L15.6122 120.064ZM13.1013 110.083L10.1113 110.328V110.328L13.1013 110.083ZM12.8181 97.254L15.8181 97.254L15.8181 97.254H12.8181ZM12.8181 82.9524H15.8181V82.9524H12.8181ZM25.8768 109.044L28.8668 108.798V108.798L25.8768 109.044ZM27.0332 114.27L29.7038 112.903V112.903L27.0332 114.27ZM32.635 119.847L33.9922 117.172H33.9922L32.635 119.847ZM37.8841 120.998L38.1273 118.008H38.1273L37.8841 120.998ZM115.933 120.998L115.69 118.008V118.008L115.933 120.998ZM121.182 119.847L119.825 117.172H119.825L121.182 119.847ZM126.784 114.27L129.454 115.637V115.637L126.784 114.27ZM127.94 109.044L130.93 109.289V109.289L127.94 109.044ZM127.54 53.4443L130.389 52.504L130.389 52.5039L127.54 53.4443ZM119.365 45.3046L118.432 48.1558V48.1558L119.365 45.3046ZM107.487 44.667L107.474 41.667H107.474L107.487 44.667ZM105.557 44.549L106.024 41.5856L105.557 44.549ZM101.478 42.8875L99.7405 45.3335L99.7405 45.3335L101.478 42.8875ZM100.018 41.625L102.125 39.4901L102.125 39.49L100.018 41.625ZM99.9447 41.5531L102.042 39.4086L102.042 39.4085L99.9447 41.5531ZM94.1949 35.929L92.0971 38.0736V38.0736L94.1949 35.929ZM90.774 32.8245L89.2274 35.3951L89.2274 35.3951L90.774 32.8245ZM41.3299 4.36312L44.1747 3.41068L44.1747 3.41068L41.3299 4.36312ZM47.5268 22.8721L44.682 23.8245C44.9818 24.7199 45.6856 25.422 46.5818 25.7194L47.5268 22.8721ZM66.1172 29.0417L65.1723 31.889L66.1172 29.0417ZM66.1172 41.1487L67.0622 43.996V43.996L66.1172 41.1487ZM47.5268 47.3184L46.5818 44.4711C45.6856 44.7685 44.9818 45.4705 44.682 46.366L47.5268 47.3184ZM41.3299 65.8274L44.1747 66.7798V66.7798L41.3299 65.8274ZM29.1696 65.8274L32.0144 64.8749L29.1696 65.8274ZM22.9728 47.3184L25.8176 46.366C25.5178 45.4705 24.8139 44.7685 23.9177 44.4711L22.9728 47.3184ZM4.38233 41.1487L3.4374 43.996H3.4374L4.38233 41.1487ZM4.38233 29.0417L3.4374 26.1944H3.43739L4.38233 29.0417ZM22.9728 22.8721L23.9177 25.7194C24.8139 25.422 25.5178 24.7199 25.8176 23.8245L22.9728 22.8721ZM29.1696 4.36312L26.3248 3.41068L26.3248 3.41068L29.1696 4.36312ZM34.1198 29.9345L36.9646 30.8869V30.8869L34.1198 29.9345ZM35.2498 26.5593L38.0946 25.6069C37.6851 24.3837 36.5396 23.5593 35.2498 23.5593C33.96 23.5593 32.8145 24.3837 32.405 25.6069L35.2498 26.5593ZM30.0663 33.9702L31.0113 36.8175V36.8175L30.0663 33.9702ZM26.6763 35.0952L25.7313 32.2479C24.5044 32.6551 23.6763 33.8025 23.6763 35.0952C23.6763 36.388 24.5044 37.5353 25.7313 37.9425L26.6763 35.0952ZM30.0663 36.2203L31.0113 33.373V33.373L30.0663 36.2203ZM35.2498 43.6312L32.405 44.5836C32.8145 45.8067 33.96 46.6312 35.2498 46.6312C36.5396 46.6312 37.6851 45.8067 38.0946 44.5836L35.2498 43.6312ZM36.3798 40.256L33.535 39.3035L36.3798 40.256ZM43.8233 35.0952L44.7683 37.9425C45.9952 37.5353 46.8233 36.388 46.8233 35.0952C46.8233 33.8025 45.9952 32.6551 44.7683 32.2479L43.8233 35.0952ZM36.3798 29.9345L33.535 30.8869V30.8869L36.3798 29.9345ZM84.3134 31.9048L84.3134 34.9048C86.0191 34.9048 86.9775 34.9151 87.5701 34.9389C88.1359 34.9616 88.2307 34.9924 88.2491 34.9968L88.9388 32.0771L89.6286 29.1575C88.6422 28.9245 87.5392 28.9048 84.3134 28.9048L84.3134 31.9048ZM83.3177 31.9048L83.3177 34.9048H84.3134L84.3134 31.9048L84.3134 28.9048H83.3177L83.3177 31.9048ZM76.9086 25.5238H73.9086C73.9086 30.7172 78.1336 34.9048 83.3177 34.9048L83.3177 31.9048L83.3177 28.9048C81.4225 28.9048 79.9086 27.3786 79.9086 25.5238L76.9086 25.5238ZM83.3177 19.1429L83.3177 16.1429C78.1336 16.1429 73.9086 20.3304 73.9086 25.5238H76.9086L79.9086 25.5238C79.9086 23.669 81.4225 22.1429 83.3177 22.1429L83.3177 19.1429ZM84.3134 19.1429L84.3134 16.1429H83.3177L83.3177 19.1429L83.3177 22.1429H84.3134L84.3134 19.1429ZM84.8406 19.1425L84.8378 16.1425C84.6633 16.1427 84.4889 16.1429 84.3134 16.1429L84.3134 19.1429L84.3134 22.1429C84.4922 22.1429 84.6692 22.1427 84.8433 22.1425L84.8406 19.1425ZM91.8981 19.66L92.5878 16.7403C89.9763 16.1234 87.342 16.1402 84.8378 16.1425L84.8406 19.1425L84.8433 22.1425C87.4923 22.1401 89.4015 22.1528 91.2084 22.5796L91.8981 19.66ZM97.4037 21.9021L98.9503 19.3315C96.9769 18.1442 94.8304 17.2701 92.5878 16.7403L91.8981 19.66L91.2084 22.5796C92.8476 22.9669 94.4159 23.6056 95.857 24.4727L97.4037 21.9021ZM102.802 26.4574L104.902 24.3147C103.117 22.5658 101.249 20.7144 98.9503 19.3315L97.4037 21.9021L95.857 24.4727C97.445 25.4281 98.8146 26.75 100.703 28.6L102.802 26.4574ZM103.178 26.8255L105.276 24.6809C105.151 24.5584 105.026 24.4366 104.902 24.3147L102.802 26.4574L100.703 28.6C100.827 28.7216 100.953 28.8453 101.08 28.9701L103.178 26.8255ZM108.371 31.9045L110.468 29.7599L105.276 24.6809L103.178 26.8255L101.08 28.9701L106.273 34.0491L108.371 31.9045ZM108.66 31.9043L108.658 28.9043C108.562 28.9044 108.465 28.9044 108.369 28.9045L108.371 31.9045L108.372 34.9045C108.469 34.9044 108.566 34.9044 108.662 34.9043L108.66 31.9043ZM123.367 33.1805L124.299 30.3293C119.824 28.8649 114.681 28.9004 108.658 28.9043L108.66 31.9043L108.662 34.9043C115.008 34.9002 119.065 34.9296 122.434 36.0318L123.367 33.1805ZM139.718 49.46L142.566 48.5197C139.723 39.906 132.94 33.1564 124.299 30.3293L123.367 33.1805L122.434 36.0318C129.27 38.2686 134.626 43.6047 136.869 50.4003L139.718 49.46ZM141 64.1024L144 64.1044C144.003 58.1091 144.039 52.9822 142.566 48.5197L139.718 49.46L136.869 50.4003C137.974 53.7477 138.004 57.7801 138 64.1004L141 64.1024ZM140.999 65.1674H143.999C143.999 64.8083 143.999 64.4543 144 64.1044L141 64.1024L138 64.1004C137.999 64.4501 137.999 64.806 137.999 65.1674H140.999ZM140.716 110.083L143.706 110.328C144.001 106.725 143.999 102.346 143.999 97.2541L140.999 97.2542L137.999 97.2542C137.999 102.435 137.997 106.534 137.726 109.838L140.716 110.083ZM138.205 120.064L140.875 121.43C142.713 117.839 143.396 114.102 143.706 110.328L140.716 110.083L137.726 109.838C137.447 113.237 136.866 116.094 135.534 118.697L138.205 120.064ZM127.001 131.218L128.359 133.894C133.746 131.161 138.128 126.799 140.875 121.43L138.205 120.064L135.534 118.697C133.366 122.934 129.905 126.381 125.644 128.543L127.001 131.218ZM116.977 133.718L117.22 136.708C121.008 136.4 124.756 135.721 128.359 133.893L127.001 131.218L125.644 128.543C123.026 129.871 120.151 130.45 116.734 130.728L116.977 133.718ZM104.091 134L104.091 137C109.206 137 113.603 137.002 117.22 136.708L116.977 133.718L116.734 130.728C113.414 130.998 109.295 131 104.091 131L104.091 134ZM36.8403 133.718L36.5971 136.708C40.2142 137.002 44.6108 137 49.7258 137L49.7257 134L49.7257 131C44.5225 131 40.4034 130.998 37.0835 130.728L36.8403 133.718ZM26.8157 131.218L25.4584 133.893C29.0608 135.721 32.8094 136.4 36.5971 136.708L36.8403 133.718L37.0835 130.728C33.6662 130.45 30.7916 129.871 28.1729 128.543L26.8157 131.218ZM15.6122 120.064L12.9416 121.43C15.6889 126.799 20.0713 131.161 25.4584 133.894L26.8157 131.218L28.1729 128.543C23.9125 126.381 20.4512 122.934 18.2828 118.697L15.6122 120.064ZM13.1013 110.083L10.1113 110.328C10.4211 114.102 11.1038 117.839 12.9416 121.43L15.6122 120.064L18.2828 118.697C16.9508 116.094 16.3702 113.237 16.0912 109.838L13.1013 110.083ZM12.8181 97.254L9.81805 97.2539C9.81797 102.346 9.81565 106.725 10.1113 110.328L13.1013 110.083L16.0912 109.838C15.8202 106.534 15.818 102.435 15.8181 97.254L12.8181 97.254ZM19.2271 76.5714L19.2271 73.5714C14.0431 73.5714 9.81805 77.759 9.81806 82.9524H12.8181H15.8181C15.8181 81.0975 17.3319 79.5714 19.2271 79.5714L19.2271 76.5714ZM25.6362 82.9524H28.6362C28.6362 77.759 24.4111 73.5714 19.2271 73.5714L19.2271 76.5714L19.2271 79.5714C21.1223 79.5714 22.6362 81.0975 22.6362 82.9524H25.6362ZM25.6362 96.9905H28.6362L28.6362 82.9524H25.6362H22.6362L22.6362 96.9905H25.6362ZM25.8768 109.044L28.8668 108.798C28.6435 106.078 28.6362 102.507 28.6362 96.9905H25.6362H22.6362C22.6362 102.405 22.6388 106.266 22.8869 109.289L25.8768 109.044ZM27.0332 114.27L29.7038 112.903C29.4466 112.401 29.0812 111.411 28.8668 108.798L25.8768 109.044L22.8869 109.289C23.1316 112.272 23.5984 114.143 24.3627 115.637L27.0332 114.27ZM32.635 119.847L33.9922 117.172C32.1437 116.234 30.6433 114.739 29.7038 112.903L27.0332 114.27L24.3627 115.637C25.881 118.604 28.3024 121.013 31.2777 122.523L32.635 119.847ZM37.8841 120.998L38.1273 118.008C35.5006 117.795 34.5015 117.43 33.9922 117.172L32.635 119.847L31.2777 122.523C32.7732 123.281 34.648 123.745 37.6409 123.989L37.8841 120.998ZM49.9906 121.238L49.9906 118.238C44.4501 118.238 40.8618 118.231 38.1273 118.008L37.8841 120.998L37.6409 123.989C40.6757 124.235 44.5513 124.238 49.9906 124.238L49.9906 121.238ZM103.827 121.238L103.827 118.238H49.9906L49.9906 121.238L49.9906 124.238H103.827L103.827 121.238ZM115.933 120.998L115.69 118.008C112.955 118.231 109.367 118.238 103.827 118.238L103.827 121.238L103.827 124.238C109.266 124.238 113.141 124.235 116.176 123.989L115.933 120.998ZM121.182 119.847L119.825 117.172C119.316 117.43 118.317 117.795 115.69 118.008L115.933 120.998L116.176 123.989C119.169 123.745 121.044 123.281 122.539 122.523L121.182 119.847ZM126.784 114.27L124.113 112.903C123.174 114.739 121.673 116.234 119.825 117.172L121.182 119.847L122.539 122.523C125.515 121.013 127.936 118.604 129.454 115.637L126.784 114.27ZM127.94 109.044L124.95 108.798C124.736 111.411 124.371 112.401 124.113 112.903L126.784 114.27L129.454 115.637C130.219 114.143 130.685 112.272 130.93 109.289L127.94 109.044ZM128.181 96.9905H125.181C125.181 102.507 125.174 106.078 124.95 108.798L127.94 109.044L130.93 109.289C131.178 106.266 131.181 102.405 131.181 96.9905H128.181ZM128.181 65.1674H125.181L125.181 96.9905H128.181H131.181L131.181 65.1674H128.181ZM127.54 53.4443L124.691 54.3846C124.848 54.8576 124.99 55.5516 125.075 57.2066C125.16 58.8715 125.181 61.299 125.181 65.1674H128.181H131.181C131.181 61.3312 131.162 58.7453 131.067 56.8989C130.971 55.0426 130.793 53.7274 130.389 52.504L127.54 53.4443ZM119.365 45.3046L118.432 48.1558C121.399 49.1266 123.72 51.4413 124.691 54.3846L127.54 53.4443L130.389 52.5039C128.818 47.7426 125.069 44.0145 120.298 42.4533L119.365 45.3046ZM107.59 44.6667L107.59 47.6667C111.475 47.6667 113.914 47.6875 115.588 47.7727C117.252 47.8574 117.953 47.999 118.432 48.1558L119.365 45.3046L120.298 42.4533C119.073 42.0526 117.756 41.8753 115.893 41.7804C114.04 41.6861 111.443 41.6667 107.59 41.6667L107.59 44.6667ZM107.487 44.667L107.501 47.667C107.542 47.6668 107.569 47.6667 107.59 47.6667L107.59 44.6667L107.59 41.6667C107.552 41.6667 107.51 41.6669 107.474 41.667L107.487 44.667ZM105.557 44.549L105.09 47.5124C106.137 47.6773 107.127 47.6687 107.501 47.667L107.487 44.667L107.474 41.667C107.096 41.6688 106.542 41.6672 106.024 41.5856L105.557 44.549ZM101.478 42.8875L99.7405 45.3335C101.331 46.4631 103.163 47.2087 105.09 47.5124L105.557 44.549L106.024 41.5856C105.01 41.4258 104.049 41.0339 103.215 40.4416L101.478 42.8875ZM100.018 41.625L97.91 43.7599C98.1759 44.0224 98.8769 44.7202 99.7405 45.3335L101.478 42.8875L103.215 40.4416C102.789 40.139 102.393 39.7544 102.125 39.4901L100.018 41.625ZM99.9447 41.5531L97.8469 43.6977C97.8622 43.7127 97.8814 43.7316 97.9101 43.76L100.018 41.625L102.125 39.49C102.099 39.4643 102.07 39.4351 102.042 39.4086L99.9447 41.5531ZM94.1949 35.929L92.0971 38.0736L97.8469 43.6978L99.9447 41.5531L102.042 39.4085L96.2927 33.7844L94.1949 35.929ZM90.774 32.8245L89.2274 35.3951C89.2428 35.4044 89.3314 35.448 89.7505 35.8261C90.1896 36.2223 90.8803 36.8834 92.0971 38.0736L94.1949 35.929L96.2927 33.7844C93.9921 31.534 93.1898 30.7768 92.3207 30.2539L90.774 32.8245ZM88.9388 32.0771L88.2491 34.9968C88.5944 35.0783 88.9245 35.2128 89.2274 35.3951L90.774 32.8245L92.3207 30.2539C91.4855 29.7514 90.5772 29.3816 89.6286 29.1575L88.9388 32.0771ZM140.999 97.2542H143.999L143.999 65.1674H140.999H137.999L137.999 97.2542H140.999ZM49.7257 134L49.7257 137L104.091 137L104.091 134L104.091 131L49.7257 131L49.7257 134ZM12.8181 82.9524H9.81806L9.81805 97.254H12.8181H15.8181L15.8181 82.9524H12.8181ZM41.3299 4.36312L44.1747 3.41068C42.8907 -0.42468 39.2913 -3 35.2498 -3L35.2498 0L35.2498 3C36.7256 3 38.0245 3.93969 38.4851 5.31556L41.3299 4.36312ZM47.5268 22.8721L50.3716 21.9196L44.1747 3.41068L41.3299 4.36312L38.4851 5.31556L44.682 23.8245L47.5268 22.8721ZM66.1172 29.0417L67.0622 26.1944L48.4717 20.0248L47.5268 22.8721L46.5818 25.7194L65.1723 31.889L66.1172 29.0417ZM70.4996 35.0952H73.4996C73.4996 31.0489 70.8995 27.4679 67.0622 26.1944L66.1172 29.0417L65.1723 31.889C66.5691 32.3526 67.4996 33.6485 67.4996 35.0952H70.4996ZM66.1172 41.1487L67.0622 43.996C70.8995 42.7225 73.4996 39.1416 73.4996 35.0952H70.4996H67.4996C67.4996 36.542 66.5691 37.8379 65.1723 38.3014L66.1172 41.1487ZM47.5268 47.3184L48.4717 50.1657L67.0622 43.996L66.1172 41.1487L65.1723 38.3014L46.5818 44.4711L47.5268 47.3184ZM41.3299 65.8274L44.1747 66.7798L50.3716 48.2708L47.5268 47.3184L44.682 46.366L38.4852 64.8749L41.3299 65.8274ZM35.2498 70.1905L35.2498 73.1905C39.2913 73.1905 42.8907 70.6152 44.1747 66.7798L41.3299 65.8274L38.4852 64.8749C38.0245 66.2508 36.7256 67.1905 35.2498 67.1905L35.2498 70.1905ZM29.1696 65.8274L26.3248 66.7798C27.6089 70.6152 31.2083 73.1905 35.2498 73.1905L35.2498 70.1905L35.2498 67.1905C33.774 67.1905 32.4751 66.2508 32.0144 64.8749L29.1696 65.8274ZM22.9728 47.3184L20.128 48.2708L26.3248 66.7798L29.1696 65.8274L32.0144 64.8749L25.8176 46.366L22.9728 47.3184ZM4.38233 41.1487L3.4374 43.996L22.0279 50.1657L22.9728 47.3184L23.9177 44.4711L5.32727 38.3014L4.38233 41.1487ZM1.21213e-06 35.0952H-3C-3 39.1416 -0.399941 42.7225 3.4374 43.996L4.38233 41.1487L5.32727 38.3014C3.93043 37.8379 3 36.542 3 35.0952H1.21213e-06ZM4.38233 29.0417L3.43739 26.1944C-0.399941 27.4679 -3 31.0489 -3 35.0952H1.21213e-06H3C3 33.6485 3.93043 32.3526 5.32727 31.889L4.38233 29.0417ZM22.9728 22.8721L22.0279 20.0248L3.4374 26.1944L4.38233 29.0417L5.32727 31.889L23.9177 25.7194L22.9728 22.8721ZM29.1696 4.36312L26.3248 3.41068L20.128 21.9196L22.9728 22.8721L25.8176 23.8245L32.0144 5.31556L29.1696 4.36312ZM35.2498 0L35.2498 -3C31.2083 -3 27.6089 -0.42468 26.3248 3.41068L29.1696 4.36312L32.0144 5.31556C32.4751 3.93969 33.7739 3 35.2498 3L35.2498 0ZM34.1198 29.9345L36.9646 30.8869L38.0946 27.5117L35.2498 26.5593L32.405 25.6069L31.275 28.9821L34.1198 29.9345ZM30.0663 33.9702L31.0113 36.8175C33.8175 35.8862 36.0256 33.6915 36.9646 30.8869L34.1198 29.9345L31.275 28.9821C30.9381 29.9883 30.1427 30.7839 29.1214 31.1229L30.0663 33.9702ZM26.6763 35.0952L27.6212 37.9425L31.0113 36.8175L30.0663 33.9702L29.1214 31.1229L25.7313 32.2479L26.6763 35.0952ZM30.0663 36.2203L31.0113 33.373L27.6212 32.2479L26.6763 35.0952L25.7313 37.9425L29.1214 39.0676L30.0663 36.2203ZM34.1198 40.256L36.9646 39.3035C36.0256 36.499 33.8175 34.3043 31.0113 33.373L30.0663 36.2203L29.1214 39.0676C30.1427 39.4065 30.9381 40.2022 31.275 41.2084L34.1198 40.256ZM35.2498 43.6312L38.0946 42.6787L36.9646 39.3035L34.1198 40.256L31.275 41.2084L32.405 44.5836L35.2498 43.6312ZM36.3798 40.256L33.535 39.3035L32.405 42.6787L35.2498 43.6312L38.0946 44.5836L39.2246 41.2084L36.3798 40.256ZM40.4332 36.2203L39.4883 33.373C36.6821 34.3043 34.474 36.499 33.535 39.3035L36.3798 40.256L39.2246 41.2084C39.5615 40.2022 40.3569 39.4065 41.3782 39.0676L40.4332 36.2203ZM43.8233 35.0952L42.8784 32.2479L39.4883 33.373L40.4332 36.2203L41.3782 39.0676L44.7683 37.9425L43.8233 35.0952ZM40.4332 33.9702L39.4883 36.8175L42.8784 37.9425L43.8233 35.0952L44.7683 32.2479L41.3782 31.1229L40.4332 33.9702ZM36.3798 29.9345L33.535 30.8869C34.474 33.6915 36.6821 35.8862 39.4883 36.8175L40.4332 33.9702L41.3782 31.1229C40.3569 30.7839 39.5615 29.9883 39.2246 28.9821L36.3798 29.9345ZM35.2498 26.5593L32.405 27.5117L33.535 30.8869L36.3798 29.9345L39.2246 28.9821L38.0946 25.6069L35.2498 26.5593ZM64.0905 82.9524H67.0905C67.0905 77.5734 71.4738 73.1905 76.9086 73.1905L76.9086 70.1905L76.9086 67.1905C68.185 67.1905 61.0905 74.2349 61.0905 82.9524H64.0905ZM76.9086 95.7143L76.9086 92.7143C71.4738 92.7143 67.0905 88.3313 67.0905 82.9524H64.0905H61.0905C61.0905 91.6699 68.185 98.7143 76.9086 98.7143L76.9086 95.7143ZM89.7267 82.9524H86.7267C86.7267 88.3313 82.3435 92.7143 76.9086 92.7143L76.9086 95.7143L76.9086 98.7143C85.6323 98.7143 92.7267 91.6699 92.7267 82.9524H89.7267ZM76.9086 70.1905L76.9086 73.1905C82.3435 73.1905 86.7267 77.5734 86.7267 82.9524H89.7267H92.7267C92.7267 74.2349 85.6323 67.1905 76.9086 67.1905L76.9086 70.1905ZM76.9086 57.4286L76.9086 54.4286C61.1057 54.4286 48.2724 67.1867 48.2724 82.9524H51.2724H54.2724C54.2724 70.5252 64.3945 60.4286 76.9086 60.4286L76.9086 57.4286ZM102.545 82.9524H105.545C105.545 67.1867 92.7115 54.4286 76.9086 54.4286L76.9086 57.4286L76.9086 60.4286C89.4227 60.4286 99.5448 70.5252 99.5448 82.9524H102.545ZM76.9086 108.476L76.9086 111.476C92.7115 111.476 105.545 98.7181 105.545 82.9524H102.545H99.5448C99.5448 95.3795 89.4227 105.476 76.9086 105.476L76.9086 108.476ZM51.2724 82.9524H48.2724C48.2724 98.7181 61.1057 111.476 76.9086 111.476L76.9086 108.476L76.9086 105.476C64.3946 105.476 54.2724 95.3795 54.2724 82.9524H51.2724Z" fill="#7F1F15" fill-opacity="0.4" mask="url(#path-1-inside-1_820_32025)"/>
</g>
</svg>
